<?xml version="1.0" standalone="no"?>
<!DOCTYPE svg PUBLIC "-//W3C//DTD SVG 20010904//EN"
 "http://www.w3.org/TR/2001/REC-SVG-20010904/DTD/svg10.dtd">
<svg version="1.0" xmlns="http://www.w3.org/2000/svg"
 width="50.000000pt" height="25.000000pt" viewBox="0 0 50.000000 25.000000"
 preserveAspectRatio="xMidYMid meet">
<metadata>
Created by potrace 1.16, written by Peter Selinger 2001-2019
</metadata>
<g transform="translate(0.000000,25.000000) scale(0.006553,-0.016667)"
fill="#000000" stroke="none">
<path d="M149 1454 c-55 -17 -105 -65 -119 -113 -5 -20 -10 -110 -10 -201 0
-182 11 -226 64 -268 55 -43 87 -47 361 -47 285 0 311 4 361 56 29 30 29 31
32 175 l3 144 -220 0 -221 0 0 -70 0 -70 120 0 c108 0 120 -2 120 -17 -1 -50
-41 -63 -194 -63 -215 0 -221 5 -221 173 0 107 1 109 28 133 27 23 33 24 191
24 145 0 165 -2 179 -18 10 -10 17 -26 17 -35 0 -15 13 -17 101 -17 l102 0 -5
65 c-7 87 -38 128 -110 150 -71 21 -510 21 -579 -1z"/>
<path d="M950 1151 l0 -321 100 0 100 0 0 80 0 80 168 0 c201 0 202 0 202 -98
l0 -62 106 0 107 0 -5 83 c-6 90 -26 142 -58 152 -26 8 -25 19 4 34 40 22 51
56 51 160 0 114 -17 154 -80 186 -37 19 -64 20 -367 23 l-328 4 0 -321z m558
133 c16 -11 22 -25 22 -54 0 -67 -9 -70 -206 -70 l-174 0 0 70 0 70 168 0
c135 0 172 -3 190 -16z"/>
<path d="M1973 1456 c-115 -37 -138 -87 -138 -301 0 -178 6 -214 46 -260 56
-64 91 -70 389 -70 298 0 333 6 389 70 40 46 46 81 46 265 0 145 -2 158 -25
205 -20 40 -35 55 -75 75 -49 25 -54 25 -320 27 -202 2 -280 -1 -312 -11z
m472 -166 c41 -16 58 -69 53 -168 -7 -128 -5 -127 -228 -127 -223 0 -221 -1
-228 127 -5 95 12 152 50 168 31 12 320 12 353 0z"/>
<path d="M2810 1150 l0 -320 100 0 100 0 2 222 3 223 175 -223 175 -222 155 3
155 2 0 315 0 315 -102 3 -103 3 -2 -222 -3 -221 -175 221 -174 221 -153 0
-153 0 0 -320z"/>
<path d="M3810 1150 l0 -320 100 0 100 0 0 320 0 320 -100 0 -100 0 0 -320z"/>
<path d="M4140 1150 l0 -320 100 0 100 0 2 220 3 220 174 -220 174 -220 153 0
154 0 0 320 0 320 -100 0 -100 0 -2 -223 -3 -223 -175 222 -175 223 -152 0
-153 1 0 -320z"/>
<path d="M5240 1455 c-52 -16 -102 -65 -119 -114 -14 -43 -15 -333 -1 -383 15
-53 53 -94 108 -115 41 -16 80 -18 312 -18 249 0 268 1 311 21 66 31 79 65 86
225 l6 129 -226 0 -227 0 0 -70 0 -70 120 0 120 0 0 -26 c0 -45 -49 -56 -223
-52 -139 3 -150 4 -167 25 -22 28 -33 139 -21 212 14 87 23 91 216 91 174 0
195 -5 195 -51 0 -17 8 -19 101 -19 l101 0 -4 65 c-5 76 -25 110 -84 140 -36
18 -61 20 -299 22 -202 2 -270 -1 -305 -12z"/>
<path d="M6040 1150 l0 -320 355 0 355 0 0 80 0 80 -255 0 -255 0 0 45 0 45
235 0 235 0 0 70 0 70 -235 0 -235 0 0 45 0 45 250 0 250 0 0 80 0 80 -350 0
-350 0 0 -320z"/>
<path d="M6857 1464 c-4 -4 -7 -148 -7 -321 l0 -313 105 0 105 0 0 80 0 80
163 0 c198 0 199 0 205 -94 l4 -66 99 0 99 0 0 75 c0 84 -16 134 -51 158 l-23
16 26 20 c40 32 50 70 46 175 -3 106 -17 134 -79 171 -32 19 -55 20 -359 23
-179 2 -328 0 -333 -4z m553 -174 c27 -15 36 -74 16 -105 l-16 -25 -175 0
-175 0 0 70 0 70 166 0 c92 0 174 -4 184 -10z"/>
<path d="M960 350 l0 -320 100 0 100 0 2 211 3 211 117 -209 116 -208 79 -3
78 -3 120 215 120 216 3 -215 2 -215 100 0 100 0 -2 317 -3 318 -151 3 -151 3
-104 -196 c-57 -107 -107 -194 -112 -192 -4 1 -53 88 -110 192 l-102 190 -152
3 -153 3 0 -321z"/>
<path d="M2122 412 l3 -259 27 -40 c17 -26 45 -49 75 -64 45 -22 61 -24 254
-27 295 -6 359 12 409 113 25 49 25 54 25 290 l0 240 -102 3 -103 3 0 -211 c0
-119 -4 -219 -10 -230 -16 -29 -66 -40 -185 -40 -127 0 -167 10 -184 46 -7 16
-11 98 -11 229 l0 205 -100 0 -101 0 3 -258z"/>
<path d="M3150 661 c-99 -31 -120 -65 -120 -191 0 -104 14 -141 61 -165 41
-22 167 -35 334 -35 150 0 188 -9 193 -47 6 -43 -29 -53 -188 -53 -174 0 -189
3 -197 41 l-5 29 -105 0 -105 0 7 -58 c17 -144 60 -162 390 -162 283 0 363 18
392 88 20 48 20 189 0 228 -38 74 -76 85 -332 91 -115 3 -218 10 -227 15 -21
10 -24 48 -6 66 8 8 60 12 169 12 130 0 160 -3 173 -16 9 -8 16 -22 16 -30 0
-11 20 -14 101 -14 l102 0 -6 54 c-7 72 -28 109 -74 132 -34 17 -66 19 -293
21 -140 1 -266 -2 -280 -6z"/>
<path d="M3930 350 l0 -320 355 0 355 0 0 80 0 80 -250 0 -250 0 0 45 0 45
230 0 230 0 0 70 0 70 -230 0 -230 0 0 45 0 45 245 0 245 0 0 80 0 80 -350 0
-350 0 0 -320z"/>
<path d="M4750 434 c0 -260 6 -298 53 -345 60 -60 79 -63 342 -64 224 0 243 1
286 21 56 26 94 74 108 134 6 25 11 145 11 268 l0 222 -99 0 -99 0 -4 -207
c-2 -144 -7 -215 -16 -230 -19 -34 -74 -45 -211 -41 -120 3 -123 4 -147 31
-24 28 -24 31 -24 238 l0 209 -100 0 -100 0 0 -236z"/>
<path d="M5670 350 l0 -320 95 0 95 0 0 222 0 223 123 -220 122 -220 80 -2 80
-3 120 217 120 218 3 -218 2 -217 95 0 95 0 0 320 0 320 -149 0 -150 0 -87
-162 c-48 -90 -97 -180 -108 -200 l-22 -36 -106 196 -106 197 -151 3 -151 3 0
-321z"/>
</g>
</svg>
